# xmcd
#
# Track frame offsets:
# 150
# 17660
# 37610
# 59932
# 76660
# 101177
# 115462
# 131292
# 153107
# 174362
# 188770
#
# Disc length: 2786 seconds
#
#
# Revision: 2
# Processed by: cddbd v1.5.1PL2 Copyright (c) Steve Scherf et al.
# Submitted via: FreeRIP 2.944 
#
DISCID=800ae00b
DTITLE=Barrelhouse - Fortune Changes
DYEAR=1994
DGENRE=Bluesrock
TTITLE0=The Other Side
TTITLE1=Fortune Changes
TTITLE2=Tell Me More
TTITLE3=Three Times A Fool
TTITLE4=Bound To Be My Baby
TTITLE5=Under My Skin
TTITLE6=Worrying You Off My Mind
TTITLE7=I Feel Like Breaking Up Somebody's Home Tonight
TTITLE8=Coming Home No More
TTITLE9=I Can't Sleep
TTITLE10=Remember Me
EXTD=
EXTT0=
EXTT1=
EXTT2=
EXTT3=
EXTT4=
EXTT5=
EXTT6=
EXTT7=
EXTT8=
EXTT9=
EXTT10=
PLAYORDER=
